# xmcd CD database file
#
# Track frame offsets:
#	150
#	25690
#	43972
#	62689
#	76234
#	98267
#	116841
#	131882
#	149158
#	169984
#	186579
#	207950
#
# Disc length: 3019 seconds
#
# Revision: 3
# Processed by: cddbd v1.5.2PL0 Copyright (c) Steve Scherf et al.
# Submitted via: CDex 1.77
#
DISCID=b30bc90c
DTITLE=Lyle Lovett - Natural Forces
DYEAR=2009
DGENRE=Country
TTITLE0=Natural Forces
TTITLE1=Farmer Brown/Chicken Reel
TTITLE2=Pantry
TTITLE3=Empty Blue Shoes
TTITLE4=Whooping Crane
TTITLE5=Bayou Song
TTITLE6=Bohemia
TTITLE7=Don't You Think I Feel It Too
TTITLE8=Sun and Moon and Stars
TTITLE9=Loretta
TTITLE10=It's Rock and Roll
TTITLE11=Pantry (Acoustic Version)
EXTD=YEAR: 2009
EXTT0=
EXTT1=
EXTT2=
EXTT3=
EXTT4=
EXTT5=
EXTT6=
EXTT7=
EXTT8=
EXTT9=
EXTT10=
EXTT11=
PLAYORDER=
